<?xml version="1.0" encoding="utf-8"?>
<!-- Generator: Adobe Illustrator 16.0.0, SVG Export Plug-In . SVG Version: 6.00 Build 0)  -->
<!DOCTYPE svg PUBLIC "-//W3C//DTD SVG 1.0//EN" "http://www.w3.org/TR/2001/REC-SVG-20010904/DTD/svg10.dtd">
<svg version="1.0" id="Camada_1" xmlns="http://www.w3.org/2000/svg" xmlns:xlink="http://www.w3.org/1999/xlink" x="0px" y="0px"
	 width="708.66px" height="96.5px" viewBox="0 0 708.66 96.5" enable-background="new 0 0 708.66 96.5" xml:space="preserve">
<g id="g3013" transform="translate(0,360.00001)" inkscape:label="FNDE (assinatura lateral)" sodipodi:insensitive="true" inkscape:groupmode="layer">
	<g enable-background="new    ">
		<path fill="#005F8A" d="M240.711-323.49v-22.626h15.511v3.828h-10.942v5.355h9.445v3.828h-9.445v9.615H240.711z"/>
		<path fill="#005F8A" d="M270.745-323.49v-2.454c-0.597,0.875-1.381,1.564-2.354,2.068c-0.973,0.504-1.999,0.756-3.079,0.756
			c-1.101,0-2.089-0.242-2.963-0.726c-0.875-0.483-1.507-1.163-1.898-2.037s-0.586-2.083-0.586-3.627v-10.372h4.337v7.532
			c0,2.305,0.08,3.717,0.239,4.236c0.159,0.52,0.45,0.932,0.872,1.235c0.421,0.304,0.957,0.455,1.605,0.455
			c0.741,0,1.404-0.203,1.991-0.609c0.587-0.406,0.988-0.911,1.204-1.513c0.216-0.602,0.324-2.076,0.324-4.422v-6.914h4.337v16.391
			H270.745z"/>
		<path fill="#005F8A" d="M294.174-323.49h-4.337v-8.365c0-1.77-0.092-2.914-0.278-3.434c-0.185-0.52-0.486-0.923-0.903-1.211
			c-0.417-0.288-0.918-0.432-1.505-0.432c-0.751,0-1.425,0.206-2.021,0.617c-0.597,0.412-1.006,0.957-1.227,1.636
			c-0.222,0.679-0.332,1.935-0.332,3.766v7.424h-4.337v-16.391h4.028v2.408c1.43-1.852,3.231-2.778,5.402-2.778
			c0.957,0,1.832,0.172,2.624,0.517c0.793,0.345,1.392,0.785,1.799,1.32c0.406,0.535,0.688,1.142,0.848,1.821
			c0.16,0.679,0.24,1.651,0.24,2.917V-323.49z"/>
		<path fill="#005F8A" d="M313.606-323.49h-4.029v-2.408c-0.668,0.937-1.459,1.634-2.369,2.091s-1.828,0.687-2.754,0.687
			c-1.883,0-3.496-0.759-4.84-2.277c-1.342-1.518-2.014-3.634-2.014-6.351c0-2.778,0.654-4.89,1.961-6.335
			c1.307-1.445,2.957-2.168,4.953-2.168c1.832,0,3.416,0.762,4.754,2.284v-8.149h4.338V-323.49z M302.03-332.041
			c0,1.749,0.242,3.015,0.725,3.797c0.701,1.132,1.678,1.698,2.934,1.698c0.998,0,1.846-0.425,2.547-1.273
			c0.699-0.849,1.049-2.117,1.049-3.805c0-1.883-0.34-3.238-1.02-4.067c-0.678-0.828-1.549-1.242-2.607-1.242
			c-1.029,0-1.891,0.409-2.586,1.227C302.377-334.888,302.03-333.666,302.03-332.041z"/>
		<path fill="#005F8A" d="M316.877-331.917c0-1.44,0.354-2.834,1.064-4.183s1.716-2.377,3.018-3.087s2.755-1.065,4.36-1.065
			c2.479,0,4.512,0.805,6.097,2.416c1.584,1.61,2.376,3.645,2.376,6.104c0,2.48-0.8,4.535-2.399,6.166
			c-1.601,1.631-3.614,2.446-6.043,2.446c-1.502,0-2.935-0.34-4.298-1.019c-1.363-0.679-2.4-1.674-3.11-2.986
			S316.877-330.034,316.877-331.917z M321.323-331.686c0,1.626,0.386,2.871,1.157,3.735s1.724,1.296,2.855,1.296
			s2.081-0.432,2.848-1.296c0.766-0.864,1.149-2.12,1.149-3.766c0-1.605-0.384-2.84-1.149-3.704
			c-0.767-0.864-1.716-1.297-2.848-1.297s-2.084,0.433-2.855,1.297S321.323-333.311,321.323-331.686z"/>
		<path fill="#005F8A" d="M346.046-323.49v-22.626h4.445l9.26,15.11v-15.11h4.244v22.626h-4.584l-9.122-14.755v14.755H346.046z"/>
		<path fill="#005F8A" d="M372.037-334.88l-3.936-0.71c0.443-1.584,1.205-2.757,2.285-3.519c1.08-0.761,2.686-1.142,4.814-1.142
			c1.936,0,3.375,0.229,4.322,0.687c0.945,0.458,1.613,1.039,1.998,1.744c0.387,0.705,0.58,1.999,0.58,3.882l-0.047,5.063
			c0,1.44,0.068,2.503,0.207,3.187c0.141,0.684,0.4,1.417,0.781,2.199h-4.291c-0.113-0.288-0.252-0.715-0.418-1.281
			c-0.072-0.257-0.123-0.427-0.154-0.509c-0.74,0.721-1.533,1.261-2.377,1.621c-0.844,0.36-1.744,0.541-2.699,0.541
			c-1.688,0-3.018-0.458-3.99-1.374c-0.973-0.916-1.459-2.073-1.459-3.472c0-0.926,0.221-1.752,0.664-2.478
			c0.441-0.725,1.063-1.281,1.859-1.667c0.797-0.386,1.947-0.723,3.449-1.011c2.027-0.38,3.432-0.735,4.215-1.065v-0.432
			c0-0.833-0.207-1.428-0.619-1.783c-0.41-0.355-1.188-0.532-2.33-0.532c-0.771,0-1.373,0.152-1.805,0.455
			C372.654-336.174,372.305-335.642,372.037-334.88z M377.842-331.361c-0.557,0.185-1.436,0.406-2.641,0.664
			c-1.203,0.257-1.99,0.509-2.361,0.756c-0.566,0.401-0.848,0.911-0.848,1.528c0,0.607,0.225,1.132,0.678,1.574
			s1.029,0.664,1.729,0.664c0.783,0,1.529-0.257,2.238-0.771c0.525-0.391,0.869-0.87,1.035-1.436c0.113-0.371,0.17-1.075,0.17-2.114
			V-331.361z"/>
		<path fill="#005F8A" d="M400.668-335.035l-4.275,0.771c-0.145-0.854-0.471-1.497-0.98-1.929s-1.17-0.648-1.982-0.648
			c-1.082,0-1.943,0.373-2.586,1.119c-0.643,0.746-0.965,1.994-0.965,3.743c0,1.945,0.326,3.318,0.98,4.121
			c0.652,0.802,1.529,1.204,2.631,1.204c0.824,0,1.498-0.234,2.021-0.702c0.525-0.468,0.896-1.273,1.111-2.416l4.26,0.726
			c-0.441,1.955-1.291,3.432-2.545,4.43c-1.256,0.998-2.939,1.497-5.047,1.497c-2.398,0-4.311-0.756-5.734-2.269
			c-1.426-1.512-2.139-3.606-2.139-6.282c0-2.706,0.717-4.813,2.146-6.32s3.363-2.261,5.803-2.261c1.996,0,3.584,0.43,4.762,1.289
			C399.307-338.104,400.152-336.794,400.668-335.035z"/>
		<path fill="#005F8A" d="M403.955-342.104v-4.013h4.336v4.013H403.955z M403.955-323.49v-16.391h4.336v16.391H403.955z"/>
		<path fill="#005F8A" d="M411.734-331.917c0-1.44,0.354-2.834,1.064-4.183c0.709-1.348,1.715-2.377,3.018-3.087
			c1.301-0.71,2.754-1.065,4.359-1.065c2.48,0,4.512,0.805,6.098,2.416c1.584,1.61,2.375,3.645,2.375,6.104
			c0,2.48-0.799,4.535-2.398,6.166c-1.602,1.631-3.615,2.446-6.043,2.446c-1.502,0-2.936-0.34-4.299-1.019
			c-1.363-0.679-2.4-1.674-3.109-2.986C412.088-328.437,411.734-330.034,411.734-331.917z M416.18-331.686
			c0,1.626,0.385,2.871,1.156,3.735s1.725,1.296,2.855,1.296c1.133,0,2.082-0.432,2.848-1.296s1.15-2.12,1.15-3.766
			c0-1.605-0.385-2.84-1.15-3.704s-1.715-1.297-2.848-1.297c-1.131,0-2.084,0.433-2.855,1.297S416.18-333.311,416.18-331.686z"/>
		<path fill="#005F8A" d="M446.953-323.49h-4.336v-8.365c0-1.77-0.094-2.914-0.277-3.434c-0.186-0.52-0.486-0.923-0.904-1.211
			c-0.416-0.288-0.918-0.432-1.504-0.432c-0.752,0-1.426,0.206-2.021,0.617c-0.598,0.412-1.006,0.957-1.229,1.636
			c-0.221,0.679-0.33,1.935-0.33,3.766v7.424h-4.338v-16.391h4.029v2.408c1.43-1.852,3.23-2.778,5.4-2.778
			c0.957,0,1.832,0.172,2.625,0.517c0.791,0.345,1.391,0.785,1.797,1.32c0.406,0.535,0.689,1.142,0.85,1.821
			c0.158,0.679,0.238,1.651,0.238,2.917V-323.49z"/>
		<path fill="#005F8A" d="M454.594-334.88l-3.936-0.71c0.441-1.584,1.203-2.757,2.283-3.519c1.08-0.761,2.686-1.142,4.816-1.142
			c1.934,0,3.375,0.229,4.32,0.687c0.947,0.458,1.613,1.039,2,1.744c0.385,0.705,0.578,1.999,0.578,3.882l-0.047,5.063
			c0,1.44,0.07,2.503,0.209,3.187s0.398,1.417,0.779,2.199h-4.291c-0.113-0.288-0.252-0.715-0.416-1.281
			c-0.072-0.257-0.123-0.427-0.154-0.509c-0.74,0.721-1.533,1.261-2.377,1.621c-0.844,0.36-1.744,0.541-2.701,0.541
			c-1.688,0-3.018-0.458-3.99-1.374c-0.971-0.916-1.457-2.073-1.457-3.472c0-0.926,0.221-1.752,0.662-2.478
			c0.443-0.725,1.063-1.281,1.861-1.667c0.797-0.386,1.947-0.723,3.449-1.011c2.027-0.38,3.432-0.735,4.213-1.065v-0.432
			c0-0.833-0.205-1.428-0.617-1.783s-1.189-0.532-2.33-0.532c-0.771,0-1.375,0.152-1.807,0.455
			C455.211-336.174,454.861-335.642,454.594-334.88z M460.396-331.361c-0.555,0.185-1.436,0.406-2.639,0.664
			c-1.205,0.257-1.992,0.509-2.361,0.756c-0.566,0.401-0.85,0.911-0.85,1.528c0,0.607,0.227,1.132,0.68,1.574
			s1.029,0.664,1.729,0.664c0.781,0,1.527-0.257,2.238-0.771c0.523-0.391,0.869-0.87,1.033-1.436c0.113-0.371,0.17-1.075,0.17-2.114
			V-331.361z"/>
		<path fill="#005F8A" d="M468.932-323.49v-22.626h4.336v22.626H468.932z"/>
		<path fill="#005F8A" d="M501.527-323.49H497.5v-2.408c-0.67,0.937-1.459,1.634-2.369,2.091c-0.912,0.458-1.83,0.687-2.756,0.687
			c-1.883,0-3.496-0.759-4.838-2.277c-1.344-1.518-2.014-3.634-2.014-6.351c0-2.778,0.652-4.89,1.959-6.335
			c1.307-1.445,2.959-2.168,4.955-2.168c1.83,0,3.416,0.762,4.754,2.284v-8.149h4.336V-323.49z M489.951-332.041
			c0,1.749,0.242,3.015,0.727,3.797c0.699,1.132,1.676,1.698,2.932,1.698c0.998,0,1.848-0.425,2.547-1.273
			c0.699-0.849,1.049-2.117,1.049-3.805c0-1.883-0.338-3.238-1.018-4.067c-0.68-0.828-1.549-1.242-2.609-1.242
			c-1.027,0-1.891,0.409-2.584,1.227C490.299-334.888,489.951-333.666,489.951-332.041z"/>
		<path fill="#005F8A" d="M515.295-328.707l4.32,0.726c-0.555,1.584-1.432,2.791-2.631,3.619c-1.199,0.829-2.699,1.243-4.5,1.243
			c-2.85,0-4.959-0.931-6.326-2.794c-1.082-1.492-1.621-3.375-1.621-5.648c0-2.716,0.709-4.844,2.129-6.382s3.217-2.308,5.387-2.308
			c2.439,0,4.363,0.805,5.773,2.416c1.408,1.61,2.082,4.077,2.021,7.4h-10.865c0.031,1.287,0.381,2.287,1.049,3.002
			c0.668,0.715,1.502,1.073,2.5,1.073c0.68,0,1.25-0.185,1.713-0.556S515.057-327.884,515.295-328.707z M515.541-333.09
			c-0.031-1.255-0.355-2.209-0.973-2.863c-0.617-0.653-1.367-0.98-2.252-0.98c-0.947,0-1.729,0.345-2.348,1.034
			c-0.617,0.689-0.92,1.625-0.91,2.809H515.541z"/>
	</g>
	<g enable-background="new    ">
		<path fill="#005F8A" d="M240.665-306.606h8.35c1.883,0,3.318,0.145,4.306,0.432c1.327,0.392,2.464,1.086,3.411,2.084
			c0.946,0.998,1.667,2.22,2.161,3.666c0.494,1.445,0.741,3.228,0.741,5.348c0,1.862-0.231,3.468-0.694,4.815
			c-0.566,1.646-1.374,2.979-2.423,3.997c-0.792,0.771-1.862,1.374-3.21,1.806c-1.008,0.319-2.356,0.479-4.043,0.479h-8.597
			V-306.606z M245.233-302.779v14.986h3.411c1.275,0,2.196-0.071,2.763-0.216c0.741-0.186,1.355-0.499,1.844-0.941
			c0.488-0.442,0.887-1.17,1.196-2.184c0.309-1.014,0.463-2.395,0.463-4.145c0-1.749-0.154-3.092-0.463-4.028
			c-0.309-0.936-0.741-1.667-1.297-2.191s-1.26-0.88-2.114-1.064c-0.638-0.145-1.888-0.217-3.75-0.217H245.233z"/>
		<path fill="#005F8A" d="M272.968-289.197l4.321,0.726c-0.556,1.585-1.433,2.791-2.631,3.619c-1.199,0.828-2.699,1.242-4.499,1.242
			c-2.85,0-4.959-0.931-6.328-2.793c-1.08-1.492-1.62-3.375-1.62-5.649c0-2.716,0.71-4.843,2.13-6.382
			c1.42-1.538,3.215-2.307,5.386-2.307c2.438,0,4.362,0.805,5.772,2.415c1.409,1.61,2.083,4.077,2.021,7.4h-10.865
			c0.031,1.286,0.38,2.287,1.049,3.002s1.502,1.072,2.5,1.072c0.679,0,1.25-0.185,1.713-0.556
			C272.381-287.777,272.731-288.374,272.968-289.197z M273.214-293.58c-0.031-1.256-0.355-2.21-0.972-2.863s-1.369-0.98-2.253-0.98
			c-0.947,0-1.729,0.346-2.346,1.034c-0.618,0.689-0.921,1.626-0.911,2.81H273.214z"/>
		<path fill="#005F8A" d="M279.527-288.657l4.353-0.663c0.185,0.844,0.561,1.484,1.126,1.921c0.566,0.438,1.358,0.656,2.377,0.656
			c1.122,0,1.965-0.206,2.531-0.617c0.38-0.288,0.571-0.674,0.571-1.157c0-0.33-0.104-0.603-0.309-0.818
			c-0.216-0.206-0.7-0.396-1.451-0.571c-3.499-0.771-5.716-1.477-6.652-2.114c-1.296-0.885-1.945-2.114-1.945-3.688
			c0-1.42,0.561-2.613,1.682-3.581c1.122-0.967,2.86-1.45,5.217-1.45c2.243,0,3.91,0.365,5,1.096
			c1.091,0.73,1.842,1.811,2.254,3.241l-4.09,0.756c-0.175-0.638-0.507-1.127-0.996-1.466c-0.489-0.34-1.186-0.51-2.091-0.51
			c-1.142,0-1.96,0.159-2.454,0.479c-0.329,0.227-0.494,0.52-0.494,0.88c0,0.309,0.144,0.571,0.432,0.787
			c0.391,0.288,1.741,0.694,4.051,1.219c2.309,0.525,3.922,1.168,4.838,1.93c0.905,0.771,1.358,1.847,1.358,3.226
			c0,1.502-0.628,2.794-1.883,3.874c-1.256,1.08-3.113,1.62-5.572,1.62c-2.233,0-4-0.452-5.302-1.357
			S279.928-287.104,279.527-288.657z"/>
		<path fill="#005F8A" d="M308.125-289.197l4.322,0.726c-0.557,1.585-1.434,2.791-2.633,3.619c-1.197,0.828-2.697,1.242-4.498,1.242
			c-2.85,0-4.959-0.931-6.328-2.793c-1.08-1.492-1.621-3.375-1.621-5.649c0-2.716,0.711-4.843,2.131-6.382
			c1.42-1.538,3.215-2.307,5.387-2.307c2.438,0,4.361,0.805,5.771,2.415s2.084,4.077,2.021,7.4h-10.865
			c0.031,1.286,0.381,2.287,1.051,3.002c0.668,0.715,1.502,1.072,2.5,1.072c0.678,0,1.25-0.185,1.713-0.556
			C307.54-287.777,307.889-288.374,308.125-289.197z M308.374-293.58c-0.031-1.256-0.355-2.21-0.973-2.863s-1.369-0.98-2.254-0.98
			c-0.947,0-1.729,0.346-2.346,1.034c-0.617,0.689-0.922,1.626-0.91,2.81H308.374z"/>
		<path fill="#005F8A" d="M331.123-283.98h-4.337v-8.365c0-1.77-0.093-2.914-0.277-3.434c-0.186-0.52-0.486-0.924-0.903-1.212
			s-0.918-0.433-1.505-0.433c-0.751,0-1.425,0.206-2.021,0.618c-0.597,0.411-1.006,0.957-1.228,1.636
			c-0.221,0.679-0.331,1.935-0.331,3.766v7.424h-4.337v-16.391h4.028v2.407c1.43-1.852,3.23-2.777,5.401-2.777
			c0.957,0,1.831,0.172,2.624,0.517c0.792,0.345,1.392,0.785,1.798,1.319c0.406,0.535,0.689,1.143,0.849,1.821
			c0.159,0.68,0.239,1.651,0.239,2.917V-283.98z"/>
		<path fill="#005F8A" d="M340.028-283.98l-6.605-16.391h4.553l3.087,8.365l0.896,2.793c0.236-0.71,0.386-1.178,0.447-1.404
			c0.144-0.463,0.298-0.926,0.463-1.389l3.118-8.365h4.46l-6.513,16.391H340.028z"/>
		<path fill="#005F8A" d="M352.097-292.407c0-1.44,0.354-2.835,1.064-4.183s1.716-2.377,3.018-3.087
			c1.301-0.71,2.754-1.064,4.359-1.064c2.48,0,4.512,0.805,6.098,2.415c1.584,1.61,2.375,3.645,2.375,6.104
			c0,2.479-0.799,4.535-2.398,6.165c-1.602,1.631-3.615,2.446-6.043,2.446c-1.502,0-2.936-0.339-4.299-1.019
			c-1.363-0.679-2.4-1.675-3.11-2.986S352.097-290.524,352.097-292.407z M356.543-292.176c0,1.626,0.385,2.871,1.156,3.735
			s1.725,1.296,2.855,1.296c1.133,0,2.082-0.432,2.848-1.296s1.15-2.12,1.15-3.767c0-1.604-0.385-2.84-1.15-3.704
			s-1.715-1.296-2.848-1.296c-1.131,0-2.084,0.432-2.855,1.296S356.543-293.802,356.543-292.176z"/>
		<path fill="#005F8A" d="M372.408-283.98v-22.626h4.336v22.626H372.408z"/>
		<path fill="#005F8A" d="M385.697-283.98l-6.605-16.391h4.553l3.086,8.365l0.896,2.793c0.236-0.71,0.385-1.178,0.447-1.404
			c0.143-0.463,0.297-0.926,0.463-1.389l3.117-8.365h4.461l-6.514,16.391H385.697z"/>
		<path fill="#005F8A" d="M398.77-302.594v-4.013h4.336v4.013H398.77z M398.77-283.98v-16.391h4.336v16.391H398.77z"/>
		<path fill="#005F8A" d="M407.227-300.371h3.998v2.237c1.43-1.738,3.133-2.607,5.107-2.607c1.051,0,1.961,0.216,2.732,0.647
			c0.771,0.433,1.404,1.086,1.898,1.96c0.721-0.874,1.496-1.527,2.33-1.96c0.834-0.432,1.723-0.647,2.67-0.647
			c1.203,0,2.223,0.244,3.057,0.732c0.832,0.489,1.455,1.207,1.867,2.153c0.299,0.7,0.447,1.831,0.447,3.396v10.479h-4.336v-9.368
			c0-1.626-0.15-2.676-0.449-3.148c-0.4-0.617-1.018-0.927-1.852-0.927c-0.607,0-1.178,0.186-1.713,0.556
			c-0.535,0.371-0.922,0.914-1.158,1.629s-0.354,1.844-0.354,3.388v7.871h-4.338v-8.982c0-1.595-0.076-2.624-0.23-3.087
			s-0.395-0.808-0.719-1.034c-0.324-0.226-0.764-0.34-1.32-0.34c-0.668,0-1.27,0.181-1.805,0.541s-0.918,0.879-1.15,1.559
			c-0.23,0.679-0.348,1.806-0.348,3.38v7.964h-4.336V-300.371z"/>
		<path fill="#005F8A" d="M445.148-289.197l4.32,0.726c-0.555,1.585-1.432,2.791-2.631,3.619s-2.699,1.242-4.5,1.242
			c-2.85,0-4.959-0.931-6.326-2.793c-1.082-1.492-1.621-3.375-1.621-5.649c0-2.716,0.709-4.843,2.129-6.382
			c1.42-1.538,3.217-2.307,5.387-2.307c2.439,0,4.363,0.805,5.773,2.415c1.408,1.61,2.082,4.077,2.021,7.4h-10.865
			c0.031,1.286,0.381,2.287,1.049,3.002s1.502,1.072,2.5,1.072c0.68,0,1.25-0.185,1.713-0.556
			C444.561-287.777,444.91-288.374,445.148-289.197z M445.395-293.58c-0.031-1.256-0.355-2.21-0.973-2.863s-1.367-0.98-2.252-0.98
			c-0.947,0-1.729,0.346-2.348,1.034c-0.617,0.689-0.92,1.626-0.91,2.81H445.395z"/>
		<path fill="#005F8A" d="M468.145-283.98h-4.338v-8.365c0-1.77-0.092-2.914-0.277-3.434s-0.486-0.924-0.902-1.212
			c-0.418-0.288-0.918-0.433-1.506-0.433c-0.75,0-1.424,0.206-2.021,0.618c-0.596,0.411-1.006,0.957-1.227,1.636
			s-0.332,1.935-0.332,3.766v7.424h-4.336v-16.391h4.027v2.407c1.43-1.852,3.23-2.777,5.402-2.777c0.957,0,1.83,0.172,2.623,0.517
			s1.393,0.785,1.799,1.319c0.406,0.535,0.689,1.143,0.848,1.821c0.16,0.68,0.24,1.651,0.24,2.917V-283.98z"/>
		<path fill="#005F8A" d="M480.059-300.371v3.457h-2.963v6.605c0,1.338,0.027,2.117,0.084,2.339
			c0.057,0.221,0.186,0.403,0.387,0.548c0.201,0.144,0.445,0.216,0.732,0.216c0.402,0,0.982-0.139,1.744-0.417l0.371,3.365
			c-1.008,0.432-2.15,0.647-3.426,0.647c-0.783,0-1.488-0.131-2.115-0.394c-0.627-0.262-1.088-0.602-1.381-1.019
			s-0.496-0.979-0.609-1.689c-0.094-0.504-0.139-1.523-0.139-3.057v-7.146h-1.992v-3.457h1.992v-3.257l4.352-2.531v5.788H480.059z"
			/>
		<path fill="#005F8A" d="M482.066-292.407c0-1.44,0.354-2.835,1.064-4.183c0.709-1.348,1.715-2.377,3.018-3.087
			c1.301-0.71,2.754-1.064,4.359-1.064c2.48,0,4.512,0.805,6.098,2.415c1.584,1.61,2.375,3.645,2.375,6.104
			c0,2.479-0.799,4.535-2.398,6.165c-1.602,1.631-3.615,2.446-6.043,2.446c-1.502,0-2.936-0.339-4.299-1.019
			c-1.363-0.679-2.4-1.675-3.109-2.986C482.42-288.927,482.066-290.524,482.066-292.407z M486.512-292.176
			c0,1.626,0.385,2.871,1.156,3.735s1.725,1.296,2.855,1.296c1.133,0,2.082-0.432,2.848-1.296s1.15-2.12,1.15-3.767
			c0-1.604-0.385-2.84-1.15-3.704s-1.715-1.296-2.848-1.296c-1.131,0-2.084,0.432-2.855,1.296S486.512-293.802,486.512-292.176z"/>
		<path fill="#005F8A" d="M526.191-283.98h-4.029v-2.407c-0.668,0.936-1.459,1.633-2.369,2.091s-1.828,0.687-2.754,0.687
			c-1.883,0-3.496-0.759-4.84-2.276c-1.342-1.518-2.014-3.635-2.014-6.351c0-2.778,0.654-4.891,1.961-6.336s2.957-2.168,4.953-2.168
			c1.832,0,3.416,0.761,4.754,2.284v-8.149h4.338V-283.98z M514.615-292.531c0,1.75,0.242,3.016,0.725,3.797
			c0.701,1.132,1.678,1.698,2.934,1.698c0.998,0,1.846-0.425,2.547-1.273c0.699-0.849,1.049-2.117,1.049-3.805
			c0-1.883-0.34-3.238-1.02-4.066c-0.678-0.828-1.549-1.243-2.607-1.243c-1.029,0-1.891,0.409-2.586,1.228
			C514.963-295.378,514.615-294.156,514.615-292.531z"/>
		<path fill="#005F8A" d="M533.707-295.371l-3.936-0.71c0.443-1.584,1.205-2.757,2.285-3.519s2.686-1.142,4.814-1.142
			c1.936,0,3.375,0.229,4.322,0.687c0.945,0.458,1.613,1.039,1.998,1.744c0.387,0.705,0.58,1.998,0.58,3.882l-0.047,5.062
			c0,1.441,0.068,2.503,0.207,3.188c0.141,0.685,0.4,1.417,0.781,2.199h-4.291c-0.113-0.288-0.252-0.715-0.418-1.281
			c-0.072-0.257-0.123-0.427-0.154-0.509c-0.74,0.72-1.533,1.26-2.377,1.62s-1.744,0.54-2.699,0.54c-1.688,0-3.018-0.457-3.99-1.373
			s-1.459-2.073-1.459-3.473c0-0.926,0.221-1.752,0.664-2.478c0.441-0.726,1.063-1.281,1.859-1.667s1.947-0.723,3.449-1.011
			c2.027-0.381,3.432-0.735,4.215-1.064v-0.433c0-0.833-0.207-1.428-0.619-1.782c-0.41-0.355-1.188-0.533-2.33-0.533
			c-0.771,0-1.373,0.152-1.805,0.456C534.324-296.664,533.975-296.132,533.707-295.371z M539.512-291.852
			c-0.557,0.185-1.436,0.406-2.641,0.663c-1.203,0.258-1.99,0.51-2.361,0.757c-0.566,0.401-0.848,0.91-0.848,1.527
			c0,0.607,0.225,1.133,0.678,1.574c0.453,0.443,1.029,0.664,1.729,0.664c0.783,0,1.529-0.257,2.238-0.771
			c0.525-0.391,0.869-0.869,1.035-1.436c0.113-0.37,0.17-1.075,0.17-2.114V-291.852z"/>
		<path fill="#005F8A" d="M556.857-283.98v-22.626h16.777v3.827h-12.209v5.017h11.359v3.812h-11.359v6.158h12.641v3.813H556.857z"/>
		<path fill="#005F8A" d="M592.943-283.98h-4.029v-2.407c-0.668,0.936-1.459,1.633-2.369,2.091s-1.828,0.687-2.754,0.687
			c-1.883,0-3.496-0.759-4.84-2.276c-1.342-1.518-2.014-3.635-2.014-6.351c0-2.778,0.654-4.891,1.961-6.336s2.957-2.168,4.953-2.168
			c1.832,0,3.416,0.761,4.754,2.284v-8.149h4.338V-283.98z M581.367-292.531c0,1.75,0.242,3.016,0.725,3.797
			c0.701,1.132,1.678,1.698,2.934,1.698c0.998,0,1.846-0.425,2.547-1.273c0.699-0.849,1.049-2.117,1.049-3.805
			c0-1.883-0.34-3.238-1.02-4.066c-0.678-0.828-1.549-1.243-2.607-1.243c-1.029,0-1.891,0.409-2.586,1.228
			C581.715-295.378,581.367-294.156,581.367-292.531z"/>
		<path fill="#005F8A" d="M608.006-283.98v-2.454c-0.598,0.875-1.381,1.564-2.354,2.068s-1.998,0.756-3.08,0.756
			c-1.1,0-2.088-0.241-2.963-0.725c-0.875-0.484-1.508-1.163-1.898-2.038c-0.391-0.874-0.586-2.083-0.586-3.627v-10.371h4.336v7.531
			c0,2.306,0.08,3.718,0.24,4.237s0.449,0.931,0.871,1.234s0.957,0.455,1.605,0.455c0.742,0,1.404-0.203,1.992-0.609
			c0.586-0.406,0.986-0.911,1.203-1.513s0.324-2.076,0.324-4.422v-6.914h4.336v16.391H608.006z"/>
		<path fill="#005F8A" d="M630.816-295.525l-4.275,0.772c-0.143-0.854-0.471-1.497-0.979-1.93c-0.51-0.432-1.172-0.648-1.984-0.648
			c-1.08,0-1.941,0.373-2.584,1.119c-0.645,0.746-0.965,1.994-0.965,3.743c0,1.944,0.326,3.318,0.979,4.12
			c0.654,0.803,1.531,1.204,2.633,1.204c0.822,0,1.496-0.233,2.021-0.702c0.525-0.468,0.895-1.273,1.111-2.415l4.26,0.725
			c-0.443,1.955-1.291,3.432-2.547,4.43s-2.938,1.497-5.047,1.497c-2.398,0-4.309-0.756-5.734-2.269
			c-1.424-1.513-2.137-3.606-2.137-6.281c0-2.706,0.715-4.813,2.145-6.32c1.432-1.508,3.365-2.261,5.805-2.261
			c1.996,0,3.582,0.43,4.76,1.288C629.455-298.594,630.303-297.284,630.816-295.525z"/>
		<path fill="#005F8A" d="M637.346-295.371l-3.936-0.71c0.441-1.584,1.203-2.757,2.283-3.519s2.686-1.142,4.816-1.142
			c1.934,0,3.375,0.229,4.32,0.687c0.947,0.458,1.613,1.039,2,1.744c0.385,0.705,0.578,1.998,0.578,3.882l-0.047,5.062
			c0,1.441,0.07,2.503,0.209,3.188s0.398,1.417,0.779,2.199h-4.291c-0.113-0.288-0.252-0.715-0.416-1.281
			c-0.072-0.257-0.123-0.427-0.154-0.509c-0.74,0.72-1.533,1.26-2.377,1.62s-1.744,0.54-2.701,0.54c-1.688,0-3.018-0.457-3.99-1.373
			c-0.971-0.916-1.457-2.073-1.457-3.473c0-0.926,0.221-1.752,0.662-2.478c0.443-0.726,1.063-1.281,1.861-1.667
			c0.797-0.386,1.947-0.723,3.449-1.011c2.027-0.381,3.432-0.735,4.213-1.064v-0.433c0-0.833-0.205-1.428-0.617-1.782
			c-0.412-0.355-1.189-0.533-2.33-0.533c-0.771,0-1.375,0.152-1.807,0.456S637.613-296.132,637.346-295.371z M643.148-291.852
			c-0.555,0.185-1.436,0.406-2.639,0.663c-1.205,0.258-1.992,0.51-2.361,0.757c-0.566,0.401-0.85,0.91-0.85,1.527
			c0,0.607,0.227,1.133,0.68,1.574c0.453,0.443,1.029,0.664,1.729,0.664c0.781,0,1.527-0.257,2.238-0.771
			c0.523-0.391,0.869-0.869,1.033-1.436c0.113-0.37,0.17-1.075,0.17-2.114V-291.852z"/>
		<path fill="#005F8A" d="M665.975-295.525l-4.275,0.772c-0.143-0.854-0.471-1.497-0.979-1.93c-0.51-0.432-1.172-0.648-1.984-0.648
			c-1.08,0-1.941,0.373-2.584,1.119c-0.645,0.746-0.965,1.994-0.965,3.743c0,1.944,0.326,3.318,0.979,4.12
			c0.654,0.803,1.531,1.204,2.633,1.204c0.822,0,1.496-0.233,2.021-0.702c0.525-0.468,0.895-1.273,1.111-2.415l4.26,0.725
			c-0.443,1.955-1.291,3.432-2.547,4.43s-2.938,1.497-5.047,1.497c-2.398,0-4.309-0.756-5.734-2.269
			c-1.424-1.513-2.137-3.606-2.137-6.281c0-2.706,0.715-4.813,2.145-6.32c1.432-1.508,3.365-2.261,5.805-2.261
			c1.996,0,3.582,0.43,4.76,1.288C664.613-298.594,665.461-297.284,665.975-295.525z M654.291-277.761v-1.821
			c1.061,0.113,2.033,0.17,2.918,0.17c0.916,0,1.594-0.165,2.037-0.494c0.34-0.247,0.51-0.565,0.51-0.957
			c0-0.35-0.16-0.653-0.479-0.91c-0.32-0.257-0.814-0.386-1.482-0.386c-0.658,0-1.332,0.103-2.021,0.309l0.4-1.528
			c0.803-0.277,1.668-0.416,2.594-0.416c1.285,0,2.264,0.282,2.932,0.849c0.67,0.565,1.004,1.255,1.004,2.068
			c0,0.905-0.371,1.641-1.111,2.207c-0.998,0.771-2.428,1.157-4.291,1.157C655.975-277.514,654.971-277.596,654.291-277.761z"/>
		<path fill="#005F8A" d="M672.504-295.371l-3.936-0.71c0.441-1.584,1.203-2.757,2.283-3.519s2.686-1.142,4.816-1.142
			c1.934,0,3.375,0.229,4.32,0.687c0.947,0.458,1.613,1.039,2,1.744c0.385,0.705,0.578,1.998,0.578,3.882l-0.047,5.062
			c0,1.441,0.07,2.503,0.209,3.188s0.398,1.417,0.779,2.199h-4.291c-0.113-0.288-0.252-0.715-0.416-1.281
			c-0.072-0.257-0.123-0.427-0.154-0.509c-0.74,0.72-1.533,1.26-2.377,1.62s-1.744,0.54-2.701,0.54c-1.688,0-3.018-0.457-3.99-1.373
			c-0.971-0.916-1.457-2.073-1.457-3.473c0-0.926,0.221-1.752,0.662-2.478c0.443-0.726,1.063-1.281,1.861-1.667
			c0.797-0.386,1.947-0.723,3.449-1.011c2.027-0.381,3.432-0.735,4.213-1.064v-0.433c0-0.833-0.205-1.428-0.617-1.782
			c-0.412-0.355-1.189-0.533-2.33-0.533c-0.771,0-1.375,0.152-1.807,0.456S672.771-296.132,672.504-295.371z M672.473-302.578
			h-1.975c-0.012-0.236-0.016-0.422-0.016-0.556c0-1.08,0.262-1.911,0.787-2.493c0.523-0.581,1.197-0.871,2.021-0.871
			c0.359,0,0.693,0.038,1.002,0.115c0.311,0.077,0.873,0.299,1.691,0.664s1.457,0.548,1.922,0.548c0.328,0,0.604-0.103,0.824-0.309
			c0.223-0.206,0.363-0.551,0.426-1.034h2.006c-0.01,1.389-0.27,2.382-0.779,2.979s-1.166,0.896-1.969,0.896
			c-0.35,0-0.693-0.036-1.033-0.108c-0.236-0.062-0.828-0.272-1.775-0.633s-1.635-0.54-2.068-0.54c-0.328,0-0.586,0.101-0.771,0.301
			C672.58-303.419,672.482-303.072,672.473-302.578z M678.307-291.852c-0.555,0.185-1.436,0.406-2.639,0.663
			c-1.205,0.258-1.992,0.51-2.361,0.757c-0.566,0.401-0.85,0.91-0.85,1.527c0,0.607,0.227,1.133,0.68,1.574
			c0.453,0.443,1.029,0.664,1.729,0.664c0.781,0,1.527-0.257,2.238-0.771c0.523-0.391,0.869-0.869,1.033-1.436
			c0.113-0.37,0.17-1.075,0.17-2.114V-291.852z"/>
		<path fill="#005F8A" d="M685.838-292.407c0-1.44,0.355-2.835,1.064-4.183c0.711-1.348,1.717-2.377,3.018-3.087
			c1.303-0.71,2.756-1.064,4.361-1.064c2.479,0,4.512,0.805,6.096,2.415s2.377,3.645,2.377,6.104c0,2.479-0.801,4.535-2.4,6.165
			c-1.6,1.631-3.613,2.446-6.043,2.446c-1.502,0-2.934-0.339-4.297-1.019c-1.363-0.679-2.4-1.675-3.111-2.986
			C686.193-288.927,685.838-290.524,685.838-292.407z M690.283-292.176c0,1.626,0.387,2.871,1.158,3.735s1.723,1.296,2.855,1.296
			c1.131,0,2.08-0.432,2.848-1.296c0.766-0.864,1.148-2.12,1.148-3.767c0-1.604-0.383-2.84-1.148-3.704
			c-0.768-0.864-1.717-1.296-2.848-1.296c-1.133,0-2.084,0.432-2.855,1.296S690.283-293.802,690.283-292.176z"/>
	</g>
	<g id="g3021" inkscape:label="Logo" sodipodi:insensitive="true" inkscape:groupmode="layer">
		<g id="g3023" transform="matrix(0.69461729,0,0,0.69461729,-19.642645,-302.60828)">
			<path id="path3025" inkscape:connector-curvature="0" fill="#005F8A" d="M114.666,27.048l13.445-89.489h17.585l36.414,74.664
				l7.866,0.027l-14.349-29.828l6.7-44.862h0.252h16.541c5.571,0.299,18.043-0.538,31.551,4.281
				c10.184,3.632,16.745,12.191,19.34,22.732c1.378,5.608,2.029,10.201,1.177,18.597c-0.751,7.387-2.841,13.709-5.423,19.043
				c-3.142,6.501-7.069,11.772-11.8,15.794c-3.556,3.062-8.119,5.438-13.692,7.148c-4.157,1.27-9.579,1.895-16.268,1.895h-18.329
				h-15.654h-2.495l-27.298-58.361l-8.767,58.361H114.666L114.666,27.048z M42.765,27.048l13.946-89.489h61.361l-2.361,15.148
				H72.436l-3.299,21.168h34.2l-2.547,15.147H66.775L60.85,27.048H42.765L42.765,27.048z M247.519,27.048l15.049-89.489h62.839
				l-2.547,15.149h-44.774l-3.335,19.834h36.74l-2.532,15.064h-36.742l-4.096,24.355h44.774l-2.537,15.087H247.519L247.519,27.048z
				 M198.517-47.293l-8.315,59.254h13.48c5.042,0,8.727-0.27,11.06-0.852c3.017-0.73,5.629-1.96,7.812-3.709
				c2.184-1.752,4.152-4.648,5.943-8.648c1.769-4,3.305-9.463,4.135-16.399C235.477-41.445,218.268-47.519,198.517-47.293
				L198.517-47.293z"/>
			<path id="path3027" inkscape:connector-curvature="0" fill="#F8A80D" d="M37.909,48.465h288.917V38.17H37.909V48.465
				L37.909,48.465z"/>
		</g>
	</g>
</g>
</svg>
