<?xml version="1.0" encoding="utf-8"?>
<!-- Generator: Adobe Illustrator 16.0.0, SVG Export Plug-In . SVG Version: 6.00 Build 0)  -->
<!DOCTYPE svg PUBLIC "-//W3C//DTD SVG 1.1//EN" "http://www.w3.org/Graphics/SVG/1.1/DTD/svg11.dtd">
<svg version="1.1" id="Camada_1" xmlns="http://www.w3.org/2000/svg" xmlns:xlink="http://www.w3.org/1999/xlink" x="0px" y="0px"
	 width="524px" height="238px" viewBox="176.735 74.441 524 238" enable-background="new 176.735 74.441 524 238"
	 xml:space="preserve">
<g>
	<path fill="#116293" d="M326.276,253.11l22.342-148.592h29.18l60.459,123.986l13.084,0.056l-23.851-49.531l11.145-74.511h0.43
		h27.457c9.26,0.484,29.987-0.86,52.383,7.107c16.906,6.028,27.78,20.243,32.141,37.74c2.264,9.312,3.339,16.956,1.939,30.9
		c-1.237,12.275-4.737,22.772-8.99,31.605c-5.224,10.82-11.737,19.542-19.598,26.219c-5.923,5.111-13.514,9.044-22.772,11.896
		c-6.893,2.1-15.882,3.123-26.974,3.123h-30.473h-25.948h-4.146l-45.331-96.907l-14.589,96.907H326.276L326.276,253.11z
		 M206.918,253.11l23.151-148.592h101.86l-3.876,25.143h-71.874l-5.491,35.155h56.798l-4.253,25.143h-56.475l-9.799,63.151H206.918z
		 M546.901,253.11l24.98-148.592H676.22l-4.256,25.143h-74.349l-5.489,32.948h60.996l-4.199,25.035h-61.05l-6.785,40.43h74.35
		l-4.2,25.036H546.901z M465.5,129.661l-13.782,98.413h22.396c8.345,0,14.481-0.482,18.358-1.454
		c5.008-1.184,9.314-3.228,12.976-6.136c3.608-2.908,6.89-7.701,9.853-14.374c2.96-6.621,5.49-15.668,6.891-27.188
		C526.873,139.406,498.34,129.283,465.5,129.661L465.5,129.661z"/>
	<rect x="198.843" y="271.576" fill="#F7A520" width="479.746" height="17.119"/>
</g>
</svg>
