<svg width="14" height="10" viewBox="0 0 14 10" fill="none" xmlns="http://www.w3.org/2000/svg">
<path fill-rule="evenodd" clip-rule="evenodd" d="M13.0002 1.66671H1.00016C0.631973 1.66671 0.333496 1.36823 0.333496 1.00004C0.333496 0.631851 0.631973 0.333374 1.00016 0.333374H13.0002C13.3684 0.333374 13.6668 0.631851 13.6668 1.00004C13.6668 1.36823 13.3684 1.66671 13.0002 1.66671ZM1.00016 4.33337H7.66683C8.03502 4.33337 8.3335 4.0349 8.3335 3.66671C8.3335 3.29852 8.03502 3.00004 7.66683 3.00004H1.00016C0.631973 3.00004 0.333496 3.29852 0.333496 3.66671C0.333496 4.0349 0.631973 4.33337 1.00016 4.33337ZM1.00016 7.00004H7.66683C8.03502 7.00004 8.3335 6.70156 8.3335 6.33337C8.3335 5.96518 8.03502 5.66671 7.66683 5.66671H1.00016C0.631973 5.66671 0.333496 5.96518 0.333496 6.33337C0.333496 6.70156 0.631973 7.00004 1.00016 7.00004ZM13.0002 8.33337H1.00016C0.631973 8.33337 0.333496 8.63185 0.333496 9.00004C0.333496 9.36823 0.631973 9.66671 1.00016 9.66671H13.0002C13.3684 9.66671 13.6668 9.36823 13.6668 9.00004C13.6668 8.63185 13.3684 8.33337 13.0002 8.33337ZM11.4162 3.22783C11.6527 3.14775 11.914 3.20649 12.0935 3.38004L13.4268 4.48671C13.5797 4.61336 13.6681 4.80154 13.6681 5.00004C13.6681 5.19854 13.5797 5.38672 13.4268 5.51337L12.0935 6.62004C11.9745 6.72183 11.8234 6.77848 11.6668 6.78004C11.4685 6.78036 11.2804 6.6924 11.1535 6.54004C11.0401 6.40399 10.9855 6.22841 11.0018 6.05206C11.0181 5.87571 11.1038 5.71307 11.2402 5.60004L11.9602 5.00004L11.2402 4.40004C11.0377 4.25404 10.9337 4.00714 10.9708 3.76026C11.0078 3.51338 11.1797 3.3079 11.4162 3.22783Z" fill="#196096"/>
</svg>
