<svg width="12" height="14" viewBox="0 0 12 14" fill="none" xmlns="http://www.w3.org/2000/svg">
<path fill-rule="evenodd" clip-rule="evenodd" d="M9.82407 5.61375V7.84522C10.6631 8.14187 11.225 8.93411 11.2275 9.82407V11.2275C11.2275 11.6151 10.9133 11.9292 10.5258 11.9292H8.32239C7.9902 13.1516 6.88046 14 5.61375 14C4.34705 14 3.23731 13.1516 2.90512 11.9292H0.701719C0.31417 11.9292 0 11.6151 0 11.2275V9.82407C0.00250118 8.93411 0.564373 8.14187 1.40344 7.84522V5.61375C1.40552 3.56086 2.88785 1.80874 4.91203 1.46659V0.701719C4.91203 0.31417 5.2262 0 5.61375 0C6.0013 0 6.31547 0.31417 6.31547 0.701719V1.46659C8.33965 1.80874 9.82199 3.56086 9.82407 5.61375ZM5.61352 2.80688C4.06332 2.80688 2.80664 4.06357 2.80664 5.61376V7.71892H8.42039V5.61376C8.42039 4.06357 7.16371 2.80688 5.61352 2.80688ZM5.61321 12.6309C5.11483 12.6279 4.65543 12.3608 4.40625 11.9292H6.82016C6.57098 12.3608 6.11158 12.6279 5.61321 12.6309ZM1.40332 10.5258H9.82395V9.82403C9.82395 9.43649 9.50978 9.12231 9.12223 9.12231H2.10504C1.71749 9.12231 1.40332 9.43649 1.40332 9.82403V10.5258Z" fill="white"/>
</svg>