<svg width="14" height="14" viewBox="0 0 14 14" fill="none" xmlns="http://www.w3.org/2000/svg">
<path fill-rule="evenodd" clip-rule="evenodd" d="M11.6667 0.333374H2.33337C1.2288 0.333374 0.333374 1.2288 0.333374 2.33337V9.00004C0.333374 10.1046 1.2288 11 2.33337 11H10.06L12.5267 13.4734C12.6525 13.5982 12.8228 13.6677 13 13.6667C13.0875 13.669 13.1743 13.6507 13.2534 13.6134C13.5023 13.5111 13.6654 13.2692 13.6667 13V2.33337C13.6667 1.2288 12.7713 0.333374 11.6667 0.333374ZM3.66671 3.66671H10.3334C10.7016 3.66671 11 3.96518 11 4.33337C11 4.70156 10.7016 5.00004 10.3334 5.00004H3.66671C3.29852 5.00004 3.00004 4.70156 3.00004 4.33337C3.00004 3.96518 3.29852 3.66671 3.66671 3.66671ZM3.66671 6.33337H7.66671C8.0349 6.33337 8.33337 6.63185 8.33337 7.00004C8.33337 7.36823 8.0349 7.66671 7.66671 7.66671H3.66671C3.29852 7.66671 3.00004 7.36823 3.00004 7.00004C3.00004 6.63185 3.29852 6.33337 3.66671 6.33337ZM10.8067 9.86004L12.3334 11.3934V2.33337C12.3334 1.96518 12.0349 1.66671 11.6667 1.66671H2.33337C1.96518 1.66671 1.66671 1.96518 1.66671 2.33337V9.00004C1.66671 9.36823 1.96518 9.66671 2.33337 9.66671H10.3334C10.5106 9.66568 10.6809 9.73525 10.8067 9.86004Z" fill="white"/>
</svg>