<svg width="21" height="20" viewBox="0 0 21 20" fill="none" xmlns="http://www.w3.org/2000/svg">
<path fill-rule="evenodd" clip-rule="evenodd" d="M1.08751 5.98389C2.67909 2.35464 6.26367 0.00765146 10.2266 0.00012207C14.1895 0.00765146 17.774 2.35464 19.3656 5.98389C20.9572 9.61314 20.2555 13.8399 17.5766 16.7601C15.6834 18.8122 13.0186 19.9795 10.2266 19.9795C7.43458 19.9795 4.76972 18.8122 2.87656 16.7601C0.197634 13.8399 -0.504081 9.61314 1.08751 5.98389ZM4.67655 15.7502C6.16546 17.1905 8.15501 17.997 10.2265 18.0002C12.2981 17.997 14.2876 17.1905 15.7765 15.7502C14.852 13.4995 12.6597 12.03 10.2265 12.03C7.79336 12.03 5.60108 13.4995 4.67655 15.7502ZM8.22656 8.00012C8.22656 6.89555 9.12199 6.00012 10.2266 6.00012C11.3311 6.00012 12.2266 6.89555 12.2266 8.00012C12.2266 9.10469 11.3311 10.0001 10.2266 10.0001C9.12199 10.0001 8.22656 9.10469 8.22656 8.00012ZM13.2266 10.6202C14.868 11.2832 16.2431 12.472 17.1366 14.0002C17.8486 12.7873 18.2248 11.4067 18.2266 10.0002C18.2266 5.58193 14.6448 2.0002 10.2266 2.0002C5.80829 2.0002 2.22656 5.58193 2.22656 10.0002C2.22828 11.4067 2.60451 12.7873 3.31656 14.0002C4.21003 12.472 5.58516 11.2832 7.22656 10.6202C5.80834 9.01208 5.91034 6.57172 7.45783 5.08757C9.00532 3.60341 11.4478 3.60341 12.9953 5.08757C14.5428 6.57172 14.6448 9.01208 13.2266 10.6202Z" fill="white"/>
</svg>